<svg xmlns="http://www.w3.org/2000/svg" viewBox="0 0 130 130"><defs><style>.cls-1{fill:#1d1d1b;}</style></defs><g id="Layer_1" data-name="Layer 1"><path class="cls-1" d="M65,7A58,58,0,1,1,7,65,58.07,58.07,0,0,1,65,7m0-7a65,65,0,1,0,65,65A65,65,0,0,0,65,0Z" transform="translate(0 0)"/></g><g id="edit"><path d="M90.44,22.5a11.92,11.92,0,0,1,4.7.94,12.11,12.11,0,0,1,6.43,6.44,11.69,11.69,0,0,1,.94,4.69,12.1,12.1,0,0,1-.9,4.61A11.71,11.71,0,0,1,99,43.1L46.06,96a4.79,4.79,0,0,1-2,1.22l-15,5a5.25,5.25,0,0,1-1.63.27,4.65,4.65,0,0,1-1.92-.4A5.07,5.07,0,0,1,24,101a5.32,5.32,0,0,1-1.08-1.59,4.77,4.77,0,0,1-.4-1.91,5.27,5.27,0,0,1,.28-1.63l5-15A4.77,4.77,0,0,1,29,79L81.92,26.05A11.66,11.66,0,0,1,90.44,22.5Zm-47.93,70v-5h-5v-5h-5L30,90l5,5ZM45,90,85,50,75,40,35,80h5v5h5Zm42.5-42.51L90,45,80,35,77.5,37.5Zm5-5c.58-.58,1.17-1.14,1.77-1.7A12.48,12.48,0,0,0,95.9,39a8.67,8.67,0,0,0,1.15-2,6.42,6.42,0,0,0,.45-2.46A6.81,6.81,0,0,0,97,31.83a7.15,7.15,0,0,0-1.52-2.25,7,7,0,0,0-2.24-1.51,6.86,6.86,0,0,0-2.75-.56A6.22,6.22,0,0,0,88,28a9,9,0,0,0-2,1.16,14,14,0,0,0-1.75,1.62q-.84.9-1.71,1.77Z" transform="translate(0 0)"/></g></svg>