<?xml version="1.0" encoding="utf-8"?>
<!-- Generator: Adobe Illustrator 25.2.1, SVG Export Plug-In . SVG Version: 6.00 Build 0)  -->
<svg version="1.1" id="Layer_2" xmlns="http://www.w3.org/2000/svg" xmlns:xlink="http://www.w3.org/1999/xlink" x="0px" y="0px"
	 viewBox="0 0 403.43 327.17" style="enable-background:new 0 0 403.43 327.17;" xml:space="preserve">
<style type="text/css">
	.st0{fill:none;stroke:#000000;stroke-width:30;stroke-linecap:round;stroke-linejoin:round;stroke-miterlimit:10;}
	.st1{fill:none;stroke:#000000;stroke-width:15;stroke-linecap:round;stroke-linejoin:round;stroke-miterlimit:10;}
</style>
<g>
	<path d="M153.48,269c7.77,0,14.09,6.32,14.09,14.09s-6.32,14.09-14.09,14.09s-14.09-6.32-14.09-14.09S145.71,269,153.48,269
		 M153.48,239c-24.35,0-44.09,19.74-44.09,44.09c0,24.35,19.74,44.09,44.09,44.09c24.35,0,44.09-19.74,44.09-44.09
		C197.57,258.74,177.83,239,153.48,239L153.48,239z"/>
</g>
<g>
	<path d="M325.83,269c7.77,0,14.09,6.32,14.09,14.09s-6.32,14.09-14.09,14.09s-14.09-6.32-14.09-14.09S318.06,269,325.83,269
		 M325.83,239c-24.35,0-44.09,19.74-44.09,44.09c0,24.35,19.74,44.09,44.09,44.09c24.35,0,44.09-19.74,44.09-44.09
		C369.91,258.74,350.17,239,325.83,239L325.83,239z"/>
</g>
<polyline class="st0" points="15,15 62,15 153.48,254.13 325.83,254.13 "/>
<line class="st1" x1="109.39" y1="137.88" x2="366.58" y2="137.88"/>
<polyline class="st0" points="82.16,68.7 388.43,68.7 347.04,201.65 133.79,201.65 "/>
<path class="st1" d="M195.74,68.7l9.74,132.96L195.74,68.7z"/>
<path class="st1" d="M283.61,68.7l-9.74,132.96L283.61,68.7z"/>
</svg>
